solid Cube2
   facet normal -1.000000e+000 -1.156482e-016 0.000000e+000
      outer loop
         vertex 0.000000e+000 0.000000e+000 6.000000e+001
         vertex 0.000000e+000 6.000000e+001 6.000000e+001
         vertex 0.000000e+000 0.000000e+000 0.000000e+000
      endloop
   endfacet
   facet normal -1.000000e+000 -1.156482e-016 0.000000e+000
      outer loop
         vertex 0.000000e+000 0.000000e+000 0.000000e+000
         vertex 0.000000e+000 6.000000e+001 6.000000e+001
         vertex 0.000000e+000 6.000000e+001 0.000000e+000
      endloop
   endfacet
   facet normal 0.000000e+000 -1.000000e+000 0.000000e+000
      outer loop
         vertex 6.000000e+001 0.000000e+000 6.000000e+001
         vertex 0.000000e+000 0.000000e+000 6.000000e+001
         vertex 6.000000e+001 0.000000e+000 0.000000e+000
      endloop
   endfacet
   facet normal 0.000000e+000 -1.000000e+000 0.000000e+000
      outer loop
         vertex 6.000000e+001 0.000000e+000 0.000000e+000
         vertex 0.000000e+000 0.000000e+000 6.000000e+001
         vertex 0.000000e+000 0.000000e+000 0.000000e+000
      endloop
   endfacet
   facet normal 1.000000e+000 1.156482e-016 0.000000e+000
      outer loop
         vertex 6.000000e+001 6.000000e+001 6.000000e+001
         vertex 6.000000e+001 0.000000e+000 6.000000e+001
         vertex 6.000000e+001 6.000000e+001 0.000000e+000
      endloop
   endfacet
   facet normal 1.000000e+000 1.156482e-016 0.000000e+000
      outer loop
         vertex 6.000000e+001 6.000000e+001 0.000000e+000
         vertex 6.000000e+001 0.000000e+000 6.000000e+001
         vertex 6.000000e+001 0.000000e+000 0.000000e+000
      endloop
   endfacet
   facet normal 0.000000e+000 1.000000e+000 0.000000e+000
      outer loop
         vertex 0.000000e+000 6.000000e+001 6.000000e+001
         vertex 6.000000e+001 6.000000e+001 6.000000e+001
         vertex 0.000000e+000 6.000000e+001 0.000000e+000
      endloop
   endfacet
   facet normal 0.000000e+000 1.000000e+000 0.000000e+000
      outer loop
         vertex 0.000000e+000 6.000000e+001 0.000000e+000
         vertex 6.000000e+001 6.000000e+001 6.000000e+001
         vertex 6.000000e+001 6.000000e+001 0.000000e+000
      endloop
   endfacet
   facet normal 0.000000e+000 0.000000e+000 1.000000e+000
      outer loop
         vertex 6.000000e+001 0.000000e+000 6.000000e+001
         vertex 6.000000e+001 6.000000e+001 6.000000e+001
         vertex 0.000000e+000 0.000000e+000 6.000000e+001
      endloop
   endfacet
   facet normal 0.000000e+000 0.000000e+000 1.000000e+000
      outer loop
         vertex 0.000000e+000 0.000000e+000 6.000000e+001
         vertex 6.000000e+001 6.000000e+001 6.000000e+001
         vertex 0.000000e+000 6.000000e+001 6.000000e+001
      endloop
   endfacet
   facet normal 0.000000e+000 0.000000e+000 -1.000000e+000
      outer loop
         vertex 6.000000e+001 6.000000e+001 0.000000e+000
         vertex 6.000000e+001 0.000000e+000 0.000000e+000
         vertex 0.000000e+000 6.000000e+001 0.000000e+000
      endloop
   endfacet
   facet normal 0.000000e+000 0.000000e+000 -1.000000e+000
      outer loop
         vertex 0.000000e+000 6.000000e+001 0.000000e+000
         vertex 6.000000e+001 0.000000e+000 0.000000e+000
         vertex 0.000000e+000 0.000000e+000 0.000000e+000
      endloop
   endfacet
endsolid